<svg width="28" height="28" viewBox="0 0 28 28" fill="none" xmlns="http://www.w3.org/2000/svg">
<g clip-path="url(#clip0_506_18)">
<path fill-rule="evenodd" clip-rule="evenodd" d="M16.4862 0.0545879C16.2844 0.0545879 16.0959 0.0975809 15.9239 0.153802C16.2927 0.401839 16.4944 0.724286 16.597 1.09303C16.6036 1.14264 16.6184 1.17902 16.6251 1.23028C16.6317 1.28154 16.6416 1.31627 16.6416 1.36257C16.6714 1.99919 16.4762 2.07856 16.3373 2.45393C16.1273 2.93842 16.1852 3.4593 16.4366 3.876C16.4596 3.93179 16.4884 3.98499 16.5225 4.03475C16.248 2.20589 17.7743 1.92974 18.0554 1.35926C18.0769 0.859879 17.6652 0.527511 17.3394 0.29601C17.0285 0.107502 16.7441 0.0479736 16.4862 0.0479736V0.0545879ZM18.7846 0.467982C18.7549 0.63334 18.778 0.590347 18.7681 0.677986L18.7516 0.866494L18.702 1.04012C18.6854 1.09799 18.6656 1.15587 18.6441 1.21374L18.5647 1.3791C18.5432 1.40887 18.5283 1.43698 18.5068 1.46509L18.4638 1.53123L18.3547 1.67509C18.3117 1.71809 18.2753 1.76935 18.2224 1.80738C18.1695 1.84541 18.1364 1.89336 18.0852 1.92974C17.933 2.04549 17.7594 2.13148 17.6007 2.24062C17.5511 2.27699 17.5015 2.30676 17.4568 2.34975C17.4079 2.38438 17.362 2.4231 17.3196 2.4655C17.27 2.50849 17.2336 2.55149 17.1873 2.60275C17.141 2.65401 17.1079 2.697 17.0781 2.74661L16.9789 2.89874L16.8996 3.0641L16.8417 3.22945L16.7921 3.41135C16.7855 3.44111 16.7855 3.47749 16.7755 3.5056C16.7656 3.53371 16.7689 3.56348 16.759 3.59159L16.7524 3.77348C16.7524 3.81647 16.7524 3.85947 16.759 3.90577C16.759 3.96364 16.7656 4.02152 16.7805 4.08766C16.7954 4.1538 16.802 4.20341 16.8169 4.26128L16.8748 4.43491C16.8913 4.47129 16.9111 4.50767 16.9244 4.53413L15.2609 3.88923L14.4225 3.67427L13.9661 3.56513C13.5309 3.47838 13.0916 3.41325 12.6499 3.37001C12.6333 3.37001 12.6284 3.36339 12.6135 3.36339L11.3187 3.29725L10.3712 3.33363C9.92973 3.36339 9.48823 3.41961 9.04838 3.49237L8.72262 3.55025L8.07112 3.69411L7.74536 3.78009L7.43449 3.91734L7.19637 4.02648C7.17984 4.03309 7.16661 4.03309 7.16 4.04301L6.95826 4.14223C6.93676 4.14884 6.92188 4.15876 6.90865 4.16372L6.68377 4.27947C6.63416 4.30097 6.58455 4.32908 6.5399 4.35223C6.51841 4.36877 6.4903 4.38034 6.47376 4.38861L6.28525 4.49775C6.22537 4.53083 6.16741 4.56727 6.11163 4.60688L5.96777 4.7061L5.80902 4.82185L5.68666 4.92106C5.67012 4.92768 5.6569 4.94256 5.64367 4.95083L5.53453 5.04508C5.52792 5.06162 5.51303 5.06658 5.50477 5.07484L5.37248 5.19721L5.22862 5.33446L5.10625 5.46674C5.08972 5.48328 5.06988 5.49651 5.05665 5.50973C5.0178 5.55505 4.97697 5.59864 4.93428 5.64037C4.92767 5.6569 4.91279 5.66186 4.90452 5.67675L4.73916 5.85037L4.34892 6.22573C4.21663 6.34148 4.08104 6.45062 3.94379 6.54322L3.51055 6.81771C3.36669 6.89709 3.21291 6.96984 3.05417 7.03268C2.9005 7.09805 2.74378 7.15599 2.58455 7.2063C2.28029 7.27245 1.96942 7.39481 1.70154 7.41631C1.64367 7.41631 1.57918 7.43284 1.51965 7.4378L1.33776 7.4808L1.16413 7.54694C1.10493 7.5704 1.04698 7.59689 0.990504 7.62631C0.940897 7.66269 0.881368 7.69246 0.831761 7.72553C0.782154 7.7586 0.732547 7.8049 0.6879 7.84789C0.643253 7.89088 0.588685 7.93388 0.544039 7.98018L0.421674 8.12404C0.385296 8.18191 0.342303 8.23317 0.312538 8.2894C0.274693 8.3424 0.240972 8.39824 0.21167 8.45641L0.132299 8.64492L0.0661555 8.83342L0.0297769 9.00705C0.00828038 9.09303 0.00828038 9.18067 1.25035e-05 9.22201C-0.00825538 9.26335 1.25035e-05 9.31792 1.25035e-05 9.36918C-0.00139223 9.40075 0.000827032 9.43237 0.00662681 9.46344C0.0132411 9.51304 0.0231626 9.55769 0.0363912 9.60068L0.0859984 9.73297C0.107495 9.78258 0.135606 9.82722 0.16537 9.87021L0.259624 10.0025L0.381989 10.1183C0.424376 10.1607 0.47029 10.1994 0.519235 10.234C0.692861 10.3861 0.7342 10.4357 0.96074 10.5515C0.997119 10.573 1.0335 10.5879 1.07649 10.6094C1.09799 10.6309 1.09799 10.6375 1.10625 10.6524C1.11287 10.7102 1.12775 10.7681 1.14263 10.826C1.15644 10.8855 1.17582 10.9437 1.20051 10.9996L1.25838 11.1319C1.265 11.1484 1.27492 11.1617 1.27988 11.1683L1.36587 11.327L1.475 11.4791L1.59737 11.6164C1.64036 11.6594 1.68335 11.6958 1.73461 11.7388L1.87847 11.8479C1.92808 11.8843 1.97769 11.914 2.03722 11.9421C2.09071 11.973 2.14656 11.9995 2.20423 12.0215C2.24722 12.043 2.29848 12.0579 2.34809 12.0711C2.3977 12.0844 2.44234 12.1009 2.47045 12.1075C2.44896 12.4977 2.44069 12.8681 2.50022 12.9971C2.56636 13.141 2.88385 12.6995 3.20134 12.1951C3.15834 12.6945 3.12858 13.2799 3.20134 13.4519C3.27409 13.6238 3.71394 13.0682 4.09096 12.4465C9.21704 11.2609 13.8967 14.8045 14.3878 19.8082C14.2935 19.0277 13.3328 18.5928 12.8913 18.7003C12.6763 19.2361 12.3059 19.924 11.7123 20.3489C11.7619 19.8694 11.7404 19.3799 11.6395 18.902C11.4778 19.5677 11.1718 20.1898 10.7433 20.7243C10.0571 20.7739 9.37083 20.4432 9.00704 19.9438C8.97727 19.9223 8.97066 19.8777 8.94916 19.8495L8.89129 19.6974C8.86979 19.6478 8.85491 19.5982 8.8483 19.5453C8.84168 19.4924 8.84168 19.4461 8.84168 19.3865V19.2774C8.8483 19.2278 8.86318 19.1782 8.87806 19.1253L8.92767 18.9731C8.95743 18.9235 8.97728 18.8739 9.01365 18.821C9.13602 18.4903 9.13602 18.1927 8.91444 18.0273C8.87145 17.9975 8.82845 17.9777 8.77719 17.9545C8.74743 17.9479 8.71105 17.9331 8.68294 17.9248L8.62506 17.9033L8.47293 17.8669C8.42349 17.8526 8.37228 17.8454 8.32081 17.8454C8.26829 17.8369 8.21525 17.8319 8.16206 17.8305C8.12568 17.8305 8.0893 17.8371 8.05293 17.8371C7.99926 17.8367 7.9458 17.8439 7.89418 17.8586L7.74205 17.8868L7.58993 17.9364L7.44606 18.0025L7.30882 18.0753C5.62217 19.1749 6.63085 21.7462 7.77843 22.4936C7.3452 22.573 6.90204 22.6672 6.78133 22.7615C7.07897 22.9632 7.40307 23.1253 7.74371 23.2609L8.91444 23.5916C9.51469 23.7239 10.1215 23.7652 10.7367 23.7288C12.2992 23.6144 13.7759 22.97 14.9224 21.9023C16.0689 20.8346 16.8166 19.4074 17.0418 17.857L17.0848 18.0455L17.1509 18.4506L17.1807 18.6457L17.1972 18.8607L17.2137 19.0988V19.2146C17.2137 19.2509 17.2204 19.2939 17.2204 19.3303C17.2204 19.3667 17.2137 19.4163 17.2137 19.4626V19.5618C17.2137 19.6114 17.2071 19.6561 17.2071 19.7057C17.2071 19.7338 17.2071 19.7636 17.2005 19.7999L17.1939 19.9587C17.1873 19.9802 17.1873 20.0017 17.1873 20.0248L17.1658 20.1902C17.1658 20.2117 17.1658 20.2332 17.1592 20.2563L17.1311 20.4663V20.4829L17.0881 20.6846L17.0451 20.8996L16.9872 21.1245L16.9293 21.3493L16.8566 21.5808L16.6978 22.0008L16.6118 22.2109L16.5126 22.4126C16.506 22.4341 16.4961 22.449 16.4911 22.4622C16.0066 23.4312 15.3121 24.2646 14.444 24.9128C14.3861 24.9492 14.3282 24.9922 14.2704 25.0352C14.2538 25.0517 14.234 25.0567 14.2208 25.0715L14.062 25.1807L14.0835 25.2237H14.0901L14.3944 25.1807H14.401L14.9632 25.0815C15.0128 25.0748 15.0724 25.06 15.122 25.0451L15.2212 25.0236L15.3733 24.9955L15.5056 24.9591C16.2282 24.7855 16.9277 24.5457 17.6023 24.2646C16.4531 25.8355 14.912 27.0988 13.1112 27.9306C13.943 27.8727 14.7747 27.7354 15.575 27.5039C18.4886 26.6441 20.9409 24.6846 22.4093 22.0438C22.1115 23.7181 21.4475 25.3059 20.4647 26.6937C21.1658 26.2307 21.809 25.6966 22.396 25.0897C24.0145 23.3998 25.0769 21.2549 25.4403 18.9434C25.6883 20.0844 25.7578 21.265 25.6503 22.4291C30.8706 15.1468 26.0835 7.59655 24.0794 5.60895C24.0728 5.59241 24.0628 5.58745 24.0628 5.57257C24.0463 5.65856 24.0413 5.7462 24.0347 5.83218C24.0132 5.99754 23.9917 6.15794 23.962 6.31668C23.9322 6.47542 23.8826 6.63417 23.8396 6.79622C23.7966 6.95827 23.7305 7.10709 23.666 7.25922C23.6015 7.41135 23.5287 7.55686 23.451 7.70072C23.3713 7.84216 23.2847 7.97958 23.1914 8.11246C23.0972 8.24971 22.9963 8.38034 22.8938 8.50271C22.7858 8.62858 22.6722 8.74942 22.5531 8.86484C22.4804 8.93098 22.4159 8.98721 22.3431 9.04673L22.1778 9.1906C22.0486 9.29304 21.9133 9.38747 21.7726 9.47336C21.6346 9.56243 21.4922 9.64466 21.346 9.71974C21.1939 9.7925 21.0418 9.85699 20.8896 9.92148C20.7356 9.97975 20.5789 10.0305 20.42 10.0736C20.2613 10.1166 20.0943 10.153 19.9355 10.1827C19.7768 10.2125 19.6048 10.2257 19.4444 10.2406C19.3287 10.2472 19.2129 10.2572 19.1137 10.2572C18.9483 10.2572 18.783 10.2406 18.6226 10.2274C18.4622 10.2142 18.2919 10.191 18.1298 10.1546C17.9657 10.1249 17.8038 10.0841 17.6453 10.0323H17.6387C17.7974 10.0157 17.9562 10.0025 18.1182 9.97439C18.2803 9.94628 18.444 9.90825 18.6027 9.86525C18.7615 9.82226 18.9202 9.771 19.0724 9.71313C19.2245 9.65525 19.3832 9.58084 19.5287 9.51139C19.6769 9.43912 19.8215 9.35966 19.962 9.27327C20.0992 9.17902 20.2365 9.08477 20.3671 8.9839C20.4967 8.88308 20.6198 8.77428 20.7359 8.65814C20.8582 8.54901 20.9674 8.42664 21.0765 8.30428C21.1856 8.18191 21.2865 8.04467 21.3807 7.91403C21.3973 7.89254 21.4105 7.86443 21.4237 7.84128L21.6337 7.51056C21.7131 7.3667 21.7859 7.22119 21.8487 7.06906C21.9115 6.91693 21.9711 6.7648 22.0223 6.60606C22.0736 6.44731 22.1083 6.29518 22.1447 6.13644C22.1811 5.9777 22.2026 5.81069 22.2175 5.65194C22.2323 5.4932 22.2456 5.32123 22.2456 5.16083C22.2456 5.04508 22.239 4.92933 22.229 4.83011C22.2125 4.66476 22.1927 4.50436 22.1712 4.34562C22.1424 4.1825 22.106 4.02082 22.062 3.86112C22.0124 3.70899 21.9628 3.55025 21.9033 3.39812C21.8437 3.24599 21.771 3.09386 21.7015 2.95165C21.6321 2.80945 21.5428 2.66228 21.4535 2.52503C21.3642 2.38778 21.265 2.25715 21.1641 2.12817L20.8334 1.75942C20.7723 1.69754 20.7095 1.63744 20.6449 1.57918C20.3209 1.32735 19.9854 1.09064 19.6395 0.869801C19.5899 0.84169 19.5453 0.820194 19.4957 0.797044C19.2576 0.644915 19.0327 0.565543 18.8094 0.492786L18.7846 0.467982Z" fill="#EA2845"/>
</g>
<defs>
<clipPath id="clip0_506_18">
<rect width="28" height="28" fill="white"/>
</clipPath>
</defs>
</svg>
