<svg width="28" height="28" viewBox="0 0 28 28" fill="none" xmlns="http://www.w3.org/2000/svg">
<g clip-path="url(#clip0_506_30)">
<mask id="mask0_506_30" style="mask-type:alpha" maskUnits="userSpaceOnUse" x="0" y="0" width="28" height="28">
<path d="M14 28C21.732 28 28 21.732 28 14C28 6.26801 21.732 0 14 0C6.26801 0 0 6.26801 0 14C0 21.732 6.26801 28 14 28Z" fill="black"/>
</mask>
<g mask="url(#mask0_506_30)">
<path d="M14 27.5333C21.4743 27.5333 27.5333 21.4743 27.5333 14C27.5333 6.52575 21.4743 0.466675 14 0.466675C6.52575 0.466675 0.466675 6.52575 0.466675 14C0.466675 21.4743 6.52575 27.5333 14 27.5333Z" fill="black" stroke="white" stroke-width="1.33333"/>
<path d="M23.2568 24.5031L10.7554 8.40002H8.40002V19.5954H10.2844V10.793L21.7776 25.6426C22.2963 25.2955 22.7903 24.9146 23.2568 24.5031Z" fill="url(#paint0_linear_506_30)"/>
<path d="M19.7556 8.40002H17.8889V19.6H19.7556V8.40002Z" fill="url(#paint1_linear_506_30)"/>
</g>
</g>
<defs>
<linearGradient id="paint0_linear_506_30" x1="16.9556" y1="18.1222" x2="22.4778" y2="24.9667" gradientUnits="userSpaceOnUse">
<stop stop-color="white"/>
<stop offset="1" stop-color="white" stop-opacity="0"/>
</linearGradient>
<linearGradient id="paint1_linear_506_30" x1="18.8222" y1="8.40002" x2="18.791" y2="16.625" gradientUnits="userSpaceOnUse">
<stop stop-color="white"/>
<stop offset="1" stop-color="white" stop-opacity="0"/>
</linearGradient>
<clipPath id="clip0_506_30">
<rect width="28" height="28" fill="white"/>
</clipPath>
</defs>
</svg>
