<svg width="35" height="35" viewBox="0 0 35 35" fill="none" xmlns="http://www.w3.org/2000/svg">
<g clip-path="url(#clip0_502_210)">
<path d="M25.682 1.34626C25.5795 0.799383 25.2103 0.341375 24.6976 0.129461C24.1849 -0.082453 23.597 -0.0209296 23.139 0.293523L17.4994 4.17634L11.8597 0.286688C11.4017 -0.0277656 10.8138 -0.089289 10.3012 0.122625C9.78846 0.334539 9.41932 0.792547 9.31678 1.33942L8.07947 8.07282L1.34607 9.31696C0.7992 9.4195 0.341192 9.78864 0.129278 10.3013C-0.0826361 10.814 -0.0211127 11.4019 0.29334 11.8599L4.17615 17.4996L0.286504 23.1392C-0.0279487 23.5972 -0.0894721 24.1851 0.122442 24.6978C0.334356 25.2105 0.792364 25.5865 1.33924 25.6822L8.07264 26.9195L9.30994 33.6529C9.41248 34.1998 9.78162 34.6578 10.2943 34.8697C10.807 35.0816 11.3949 35.0201 11.8529 34.7056L17.4994 30.8228L23.139 34.7125C23.597 35.0269 24.1849 35.0884 24.6976 34.8765C25.2103 34.6646 25.5795 34.2066 25.682 33.6597L26.9193 26.9263L33.6527 25.689C34.1996 25.5865 34.6576 25.2173 34.8695 24.7047C35.0814 24.192 35.0199 23.6041 34.7054 23.1461L30.8226 17.4996L34.7123 11.8599C35.0267 11.4019 35.0883 10.814 34.8763 10.3013C34.6644 9.78864 34.2064 9.4195 33.6595 9.31696L26.9261 8.07966L25.682 1.34626ZM18.4291 7.51911L22.9135 4.42927L23.8978 9.78181C24.0209 10.4517 24.5472 10.9781 25.2172 11.1011L30.5697 12.0855L27.4799 16.5699C27.0902 17.1304 27.0902 17.8687 27.4799 18.4293L30.5697 22.9136L25.2172 23.898C24.5472 24.0211 24.0209 24.5474 23.8978 25.2173L22.9135 30.5699L18.4291 27.48C17.8685 27.0904 17.1303 27.0904 16.5697 27.48L12.0853 30.5699L11.101 25.2173C10.9779 24.5474 10.4515 24.0211 9.78162 23.898L4.42908 22.9136L7.51893 18.4293C7.90857 17.8687 7.90857 17.1304 7.51893 16.5699L4.42908 12.0855L9.78162 11.1011C10.4515 10.9781 10.9779 10.4517 11.101 9.78181L12.0853 4.42927L16.5697 7.51911C17.1303 7.90876 17.8685 7.90876 18.4291 7.51911ZM17.4994 25.1558C19.53 25.1558 21.4774 24.3492 22.9132 22.9134C24.349 21.4775 25.1556 19.5301 25.1556 17.4996C25.1556 15.469 24.349 13.5216 22.9132 12.0858C21.4774 10.65 19.53 9.84333 17.4994 9.84333C15.4688 9.84333 13.5214 10.65 12.0856 12.0858C10.6498 13.5216 9.84314 15.469 9.84314 17.4996C9.84314 19.5301 10.6498 21.4775 12.0856 22.9134C13.5214 24.3492 15.4688 25.1558 17.4994 25.1558ZM13.1244 17.4996C13.1244 16.3393 13.5853 15.2265 14.4058 14.406C15.2263 13.5855 16.3391 13.1246 17.4994 13.1246C18.6597 13.1246 19.7725 13.5855 20.593 14.406C21.4135 15.2265 21.8744 16.3393 21.8744 17.4996C21.8744 18.6599 21.4135 19.7727 20.593 20.5932C19.7725 21.4136 18.6597 21.8746 17.4994 21.8746C16.3391 21.8746 15.2263 21.4136 14.4058 20.5932C13.5853 19.7727 13.1244 18.6599 13.1244 17.4996Z" fill="white"/>
</g>
<defs>
<clipPath id="clip0_502_210">
<rect width="35" height="35" fill="white"/>
</clipPath>
</defs>
</svg>
